<mxfile host="app.diagrams.net" agent="Mozilla/5.0 (Windows NT 10.0; Win64; x64) AppleWebKit/537.36 (KHTML, like Gecko) Chrome/130.0.0.0 Safari/537.36" version="24.7.17">
  <diagram name="PÃ¡gina-1" id="hNYAAqSymZ0YNKkiLd2x">
    <mxGraphModel dx="1290" dy="596" grid="1" gridSize="10" guides="1" tooltips="1" connect="1" arrows="1" fold="1" page="1" pageScale="1" pageWidth="827" pageHeight="1169" math="0" shadow="0">
      <root>
        <mxCell id="0" />
        <mxCell id="1" parent="0" />
        <mxCell id="GfnhyUZuGeiHSdNjZTDy-6" value="" style="edgeStyle=orthogonalEdgeStyle;rounded=0;orthogonalLoop=1;jettySize=auto;html=1;" edge="1" parent="1" source="GfnhyUZuGeiHSdNjZTDy-2" target="GfnhyUZuGeiHSdNjZTDy-5">
          <mxGeometry relative="1" as="geometry" />
        </mxCell>
        <mxCell id="GfnhyUZuGeiHSdNjZTDy-2" value="INCIO" style="ellipse;whiteSpace=wrap;html=1;" vertex="1" parent="1">
          <mxGeometry x="90" y="70" width="120" height="80" as="geometry" />
        </mxCell>
        <mxCell id="GfnhyUZuGeiHSdNjZTDy-5" value="Obtener el pin donde enviara voltaje" style="whiteSpace=wrap;html=1;" vertex="1" parent="1">
          <mxGeometry x="90" y="240" width="120" height="60" as="geometry" />
        </mxCell>
        <mxCell id="GfnhyUZuGeiHSdNjZTDy-8" value="setup: Pinmode&lt;div&gt;loop: digitalwrite&lt;br&gt;&lt;div&gt;&lt;br&gt;&lt;/div&gt;&lt;/div&gt;" style="shape=callout;whiteSpace=wrap;html=1;perimeter=calloutPerimeter;" vertex="1" parent="1">
          <mxGeometry x="180" y="171" width="120" height="80" as="geometry" />
        </mxCell>
      </root>
    </mxGraphModel>
  </diagram>
</mxfile>
